<svg width="112" height="112" viewBox="0 0 112 112" fill="none" xmlns="http://www.w3.org/2000/svg">
<path d="M32.5701 1.14612C26.6551 1.42519 22.6158 2.36914 19.0846 3.7567C15.4299 5.18096 12.3324 7.0922 9.25034 10.1853C6.16831 13.2784 4.2704 16.3782 2.85614 20.0384C1.48746 23.5774 0.560187 27.62 0.298905 33.5383C0.0376222 39.4566 -0.0201936 41.3589 0.00871431 56.4554C0.0376222 71.5519 0.104333 73.4442 0.391188 79.3747C0.673595 85.2886 1.61421 89.3268 3.00179 92.859C4.42828 96.5136 6.33731 99.6101 9.43157 102.693C12.5258 105.776 15.6234 107.67 19.2925 109.086C22.8281 110.453 26.8719 111.384 32.7891 111.643C38.7063 111.903 40.6109 111.963 55.7031 111.934C70.7952 111.905 72.6953 111.838 78.6248 111.557C84.5542 111.275 88.5713 110.328 92.1047 108.947C95.7593 107.517 98.858 105.612 101.939 102.516C105.02 99.4211 106.917 96.3191 108.33 92.6567C109.7 89.1211 110.63 85.0773 110.887 79.1646C111.146 73.2307 111.207 71.3362 111.178 56.2419C111.149 41.1477 111.082 39.2553 110.8 33.327C110.519 27.3987 109.577 23.3728 108.191 19.8383C106.762 16.1837 104.855 13.0894 101.762 10.0041C98.669 6.91876 95.5648 5.02308 91.9035 3.61328C88.3656 2.24461 84.3241 1.31178 78.4068 1.05606C72.4896 0.800339 70.585 0.734741 55.4874 0.763648C40.3897 0.792556 38.4995 0.857042 32.5701 1.14612ZM33.2194 101.643C27.7992 101.407 24.8561 100.506 22.8948 99.7524C20.2976 98.7518 18.4475 97.5421 16.4929 95.6064C14.5383 93.6707 13.3375 91.8139 12.3235 89.2222C11.5619 87.261 10.6446 84.3213 10.3911 78.9011C10.1153 73.0428 10.0575 71.2839 10.0253 56.442C9.99305 41.6002 10.0498 39.8435 10.3066 33.983C10.5378 28.5673 11.444 25.6209 12.1967 23.6607C13.1974 21.0602 14.4026 19.2134 16.3428 17.2599C18.2829 15.3064 20.1341 14.1034 22.7281 13.0894C24.6871 12.3245 27.6268 11.415 33.0448 11.1571C38.9076 10.8791 40.6643 10.8235 55.504 10.7913C70.3438 10.759 72.1049 10.8146 77.9699 11.0726C83.3857 11.3083 86.3332 12.2055 88.2911 12.9627C90.8895 13.9633 92.7385 15.1652 94.692 17.1087C96.6455 19.0522 97.8496 20.8967 98.8636 23.4962C99.6297 25.4497 100.539 28.3883 100.795 33.8096C101.074 39.6723 101.137 41.4301 101.164 56.2686C101.191 71.1071 101.138 72.8694 100.882 78.7276C100.645 84.1478 99.7464 87.092 98.9915 89.0555C97.9908 91.6516 96.7845 93.5028 94.8432 95.4552C92.9019 97.4075 91.0529 98.6106 88.4579 99.6245C86.501 100.388 83.558 101.3 78.1444 101.558C72.2817 101.834 70.525 101.892 55.6797 101.924C40.8344 101.956 39.0833 101.896 33.2205 101.643M78.5392 26.6371C78.5414 27.9566 78.9348 29.2458 79.6698 30.3417C80.4047 31.4375 81.4481 32.2908 82.6681 32.7937C83.888 33.2965 85.2297 33.4262 86.5234 33.1665C87.8171 32.9067 89.0047 32.2692 89.936 31.3344C90.8673 30.3997 91.5005 29.2098 91.7555 27.9152C92.0105 26.6206 91.8758 25.2794 91.3685 24.0613C90.8612 22.8432 90.0041 21.8029 88.9056 21.072C87.807 20.3411 86.5164 19.9524 85.1969 19.955C83.428 19.9585 81.7329 20.6645 80.4844 21.9175C79.2359 23.1706 78.5362 24.8683 78.5392 26.6371ZM27.0498 56.4042C27.0809 72.17 39.8849 84.9217 55.6475 84.8916C71.41 84.8616 84.1706 72.0589 84.1406 56.2931C84.1106 40.5273 71.3033 27.7723 55.5385 27.8034C39.7737 27.8346 27.0198 40.6407 27.0498 56.4042ZM37.063 56.3842C37.0558 52.7192 38.1355 49.1343 40.1657 46.0828C42.1959 43.0314 45.0853 40.6506 48.4687 39.2413C51.852 37.832 55.5772 37.4577 59.1733 38.1656C62.7694 38.8735 66.0748 40.6319 68.6715 43.2183C71.2683 45.8048 73.0397 49.1032 73.7618 52.6964C74.484 56.2896 74.1244 60.0163 72.7285 63.4051C71.3327 66.794 68.9632 69.6928 65.9199 71.7351C62.8765 73.7773 59.2959 74.8712 55.6308 74.8785C53.1972 74.8836 50.7864 74.4092 48.5361 73.4825C46.2858 72.5558 44.2402 71.1949 42.5159 69.4775C40.7917 67.7601 39.4227 65.7198 38.4871 63.4733C37.5514 61.2267 37.0676 58.8178 37.063 56.3842Z" fill="black"/>
</svg>
