<svg width="92" height="105" viewBox="0 0 92 105" fill="none" xmlns="http://www.w3.org/2000/svg">
<path d="M77.8297 21.4134C70.756 16.8108 66.4699 8.97783 66.4699 0.554321H48.5243L48.4895 72.2323C48.1759 80.5169 41.1718 86.9952 32.8611 86.6652C24.5504 86.3526 18.0516 79.3706 18.3826 71.0861C18.6962 63.0099 25.3518 56.6358 33.4535 56.6358C34.9693 56.6358 36.4676 56.879 37.8963 57.3305V39.0593C36.4154 38.8509 34.9344 38.7467 33.4535 38.7293C15.2465 38.7293 0.437012 53.4922 0.437012 71.6418C0.471858 89.8088 15.2291 104.537 33.4709 104.554C51.6779 104.554 66.4874 89.7915 66.4874 71.6418V35.3078C73.7527 40.5183 82.4816 43.3319 91.437 43.3145V25.4254C86.5934 25.4428 81.8718 24.036 77.8297 21.4134Z" fill="black"/>
</svg>
