<svg width="127" height="111" viewBox="0 0 127 111" fill="none" xmlns="http://www.w3.org/2000/svg">
<path d="M126.914 26.5423C126.456 38.8642 117.75 55.7498 101.256 77.1991C83.8456 99.5611 69.1841 110.97 57.2716 110.97C49.9408 110.97 43.5264 104.125 38.4865 90.4337C35.2793 78.1118 31.6139 65.3335 28.4067 53.0116C24.7413 39.3206 20.6178 32.4751 16.036 32.4751C15.1197 32.4751 11.9125 34.3006 5.95625 38.4079L0 30.6496C6.41442 25.1732 12.3707 19.6968 18.3269 14.2204C26.574 6.91853 32.9884 3.2676 37.112 2.81123C47.1918 1.89849 53.148 8.744 55.4389 22.8914C57.7298 38.4079 59.5625 47.9916 60.4788 52.0989C63.2278 64.8772 66.4351 71.2663 70.1004 71.2663C72.8495 71.2663 76.973 67.159 82.0129 58.488C87.511 50.2734 90.26 43.8843 90.7182 39.3206C91.6346 32.0187 88.4274 28.3678 82.0129 28.3678C78.8057 28.3678 76.0567 29.2805 72.8495 30.6496C79.2639 10.1131 91.1764 0.529395 108.587 0.985762C121.416 1.44213 127.83 9.65674 126.914 26.5423Z" fill="black"/>
</svg>
