<svg width="122" height="86" viewBox="0 0 122 86" fill="none" xmlns="http://www.w3.org/2000/svg">
<path d="M119.307 13.6745C117.914 8.44408 113.808 4.32536 108.593 2.92751C99.1421 0.387108 61.2443 0.387108 61.2443 0.387108C61.2443 0.387108 23.3466 0.387108 13.8954 2.92751C8.68124 4.32536 4.57447 8.44408 3.18088 13.6745C0.648438 23.1542 0.648438 42.9331 0.648438 42.9331C0.648438 42.9331 0.648438 62.7117 3.18088 72.1924C4.57447 77.4221 8.68124 81.5408 13.8954 82.9393C23.3466 85.4791 61.2443 85.4791 61.2443 85.4791C61.2443 85.4791 99.1421 85.4791 108.593 82.9393C113.808 81.5408 117.914 77.4221 119.307 72.1924C121.84 62.7117 121.84 42.9331 121.84 42.9331C121.84 42.9331 121.84 23.1542 119.307 13.6745Z" fill="black"/>
<path d="M48.8501 60.8907L80.5252 42.9339L48.8501 24.9754V60.8907Z" fill="white"/>
</svg>
